<?xml version="1.0" standalone="no"?>
<!DOCTYPE svg PUBLIC "-//W3C//DTD SVG 20010904//EN"
 "http://www.w3.org/TR/2001/REC-SVG-20010904/DTD/svg10.dtd">
<svg version="1.0" xmlns="http://www.w3.org/2000/svg"
 width="357.000000pt" height="357.000000pt" viewBox="0 0 357.000000 357.000000"
 preserveAspectRatio="xMidYMid meet">
<metadata>
Created by potrace 1.15, written by Peter Selinger 2001-2017
</metadata>
<g transform="translate(0.000000,357.000000) scale(0.100000,-0.100000)"
fill="#000000" stroke="none">
<path d="M2960 2433 c0 -1227 1 -1199 -53 -1333 -98 -242 -313 -422 -569 -474
-402 -83 -809 184 -904 590 -27 119 -18 292 21 409 151 445 660 659 1073 451
121 -61 190 -120 301 -256 l20 -25 1 406 0 406 -67 33 c-84 40 -214 83 -313
105 -120 26 -364 31 -495 10 -582 -91 -1035 -528 -1152 -1112 -27 -134 -24
-404 6 -543 121 -563 566 -991 1129 -1085 153 -26 419 -17 558 18 534 135 925
543 1034 1077 19 95 20 136 20 1279 l0 1181 -305 0 -305 0 0 -1137z"/>
<path d="M2617 3159 c-114 -137 -210 -256 -213 -262 -3 -9 23 -18 86 -30 51
-10 142 -36 203 -58 62 -22 120 -43 130 -46 16 -5 17 15 17 321 0 179 -3 326
-7 326 -5 0 -102 -113 -216 -251z"/>
<path d="M215 2603 c-67 -15 -117 -38 -149 -69 -71 -69 -66 24 -66 -1320 l0
-1214 305 0 305 0 0 1183 c0 1311 -4 1234 66 1315 43 50 102 79 196 96 67 13
44 14 -282 14 -195 0 -364 -2 -375 -5z"/>
<path d="M2100 2095 c-240 -48 -444 -204 -549 -419 -60 -122 -75 -190 -75
-341 -1 -119 17 -256 33 -254 14 2 842 1010 836 1019 -9 14 -166 11 -245 -5z"/>
<path d="M725 878 c-3 -13 -4 -185 -3 -383 l3 -360 120 145 c66 80 126 152
132 161 11 13 4 29 -43 100 -60 88 -147 257 -166 321 -12 42 -35 50 -43 16z"/>
</g>
</svg>
